HIERARCHY
ROOT Hips
{
	OFFSET 0.00000 0.00000 0.00000
	CHANNELS 6 Xposition Yposition Zposition Zrotation Yrotation Xrotation 
	JOINT LHipJoint
	{
		OFFSET 0 0 0
		CHANNELS 3 Zrotation Yrotation Xrotation
		JOINT LeftUpLeg
		{
			OFFSET 1.41496 -1.84582 0.78394
			CHANNELS 3 Zrotation Yrotation Xrotation
			JOINT LeftLeg
			{
				OFFSET 2.58040 -7.08960 0.00000
				CHANNELS 3 Zrotation Yrotation Xrotation
				JOINT LeftFoot
				{
					OFFSET 2.64719 -7.27309 0.00000
					CHANNELS 3 Zrotation Yrotation Xrotation
					JOINT LeftToeBase
					{
						OFFSET 0.20718 -0.56921 2.20259
						CHANNELS 3 Zrotation Yrotation Xrotation
						End Site
						{
							OFFSET 0.00000 -0.00000 1.14243
						}
					}
				}
			}
		}
	}
	JOINT RHipJoint
	{
		OFFSET 0 0 0
		CHANNELS 3 Zrotation Yrotation Xrotation
		JOINT RightUpLeg
		{
			OFFSET -1.40551 -1.84582 0.78394
			CHANNELS 3 Zrotation Yrotation Xrotation
			JOINT RightLeg
			{
				OFFSET -2.56572 -7.04926 0.00000
				CHANNELS 3 Zrotation Yrotation Xrotation
				JOINT RightFoot
				{
					OFFSET -2.57974 -7.08778 0.00000
					CHANNELS 3 Zrotation Yrotation Xrotation
					JOINT RightToeBase
					{
						OFFSET -0.26704 -0.73369 2.20815
						CHANNELS 3 Zrotation Yrotation Xrotation
						End Site
						{
							OFFSET -0.00000 -0.00000 1.16246
						}
					}
				}
			}
		}
	}
	JOINT LowerBack
	{
		OFFSET 0 0 0
		CHANNELS 3 Zrotation Yrotation Xrotation
		JOINT Spine
		{
			OFFSET -0.04690 2.05196 -0.07017
			CHANNELS 3 Zrotation Yrotation Xrotation
			JOINT Spine1
			{
				OFFSET 0.04085 2.05260 0.00800
				CHANNELS 3 Zrotation Yrotation Xrotation
				JOINT Neck
				{
					OFFSET 0 0 0
					CHANNELS 3 Zrotation Yrotation Xrotation
					JOINT Neck1
					{
						OFFSET -0.03582 1.80995 0.19301
						CHANNELS 3 Zrotation Yrotation Xrotation
						JOINT Head
						{
							OFFSET 0.00952 1.80195 -0.36389
							CHANNELS 3 Zrotation Yrotation Xrotation
							End Site
							{
								OFFSET 0.00392 1.85062 -0.14494
							}
						}
					}
				}
				JOINT LeftShoulder
				{
					OFFSET 0 0 0
					CHANNELS 3 Zrotation Yrotation Xrotation
					JOINT LeftArm
					{
						OFFSET 3.55224 1.39726 -0.13667
						CHANNELS 3 Zrotation Yrotation Xrotation
						JOINT LeftForeArm
						{
							OFFSET 5.14507 -0.00000 -0.00000
							CHANNELS 3 Zrotation Yrotation Xrotation
							JOINT LeftHand
							{
								OFFSET 3.50646 -0.00000 0.00000
								CHANNELS 3 Zrotation Yrotation Xrotation
								JOINT LeftFingerBase
								{
									OFFSET 0 0 0
									CHANNELS 3 Zrotation Yrotation Xrotation
									JOINT LeftHandIndex1
									{
										OFFSET 0.62997 -0.00000 0.00000
										CHANNELS 3 Zrotation Yrotation Xrotation
										End Site
										{
											OFFSET 0.50790 -0.00000 0.00000
										}
									}
								}
								JOINT LThumb
								{
									OFFSET 0 0 0
									CHANNELS 3 Zrotation Yrotation Xrotation
									End Site
									{
										OFFSET 0.51565 -0.00000 0.51565
									}
								}
							}
						}
					}
				}
				JOINT RightShoulder
				{
					OFFSET 0 0 0
					CHANNELS 3 Zrotation Yrotation Xrotation
					JOINT RightArm
					{
						OFFSET -3.06467 1.61290 -0.28813
						CHANNELS 3 Zrotation Yrotation Xrotation
						JOINT RightForeArm
						{
							OFFSET -5.23200 -0.00000 -0.00000
							CHANNELS 3 Zrotation Yrotation Xrotation
							JOINT RightHand
							{
								OFFSET -3.65641 -0.00000 0.00000
								CHANNELS 3 Zrotation Yrotation Xrotation
								JOINT RightFingerBase
								{
									OFFSET 0 0 0
									CHANNELS 3 Zrotation Yrotation Xrotation
									JOINT RightHandIndex1
									{
										OFFSET -0.65681 -0.00000 0.00000
										CHANNELS 3 Zrotation Yrotation Xrotation
										End Site
										{
											OFFSET -0.52953 -0.00000 0.00000
										}
									}
								}
								JOINT RThumb
								{
									OFFSET 0 0 0
									CHANNELS 3 Zrotation Yrotation Xrotation
									End Site
									{
										OFFSET -0.53762 -0.00000 0.53762
									}
								}
							}
						}
					}
				}
			}
		}
	}
}
MOTION
Frames: 14
Frame Time: 0.0555556
0.00 0.00 0.00 0 0 0 0 0 0 -21 0 0 0 0 0 0 0 0 0 0 0 0 0 0 21 0 0 0 0 0 0 0 0 0 0 0 0 0 0 0 0 0 0 0 0 0 0 -16 0 0 21 0 0 11 0 0 0 -8 0 0 0 0 0 0 0 0 0 0 0 0 0 0 0 0 0 0 0 0 8 0 0 0 0 0 0 0 0 0 0 0 0 0 0 0 0 0
0.00 0.00 0.00 -3.9824 -12.9069 29.3508 0.0000 0.0000 0.0000 -15.2870 -11.8397 -59.0528 16.1604 19.6428 78.7093 1.3621 -18.5912 -23.0225 0.0345 -1.1985 -3.2951 0.0000 0.0000 0.0000 21.3573 -2.4519 -10.9382 -6.2931 -14.7065 46.1470 0.1043 7.2505 -2.1046 -1.2553 7.1030 -20.0209 4.9213 2.0508 12.0394 1.8269 3.6494 -2.1939 -1.5235 1.5549 -8.9435 -0.3927 0.9747 -21.4454 -4.8305 1.7245 1.0289 -1.2971 0.5430 3.7022 0.0000 -0.0000 0.0000 -84.0520 23.2456 49.4511 98.8230 -59.7038 -67.6333 -0.0000 0.0000 -12.7494 27.0697 -17.0032 -8.4997 -7.1250 0.0000 -0.0000 -0.5345 11.0273 0.4224 0.0000 -0.0000 0.0000 87.8937 -7.1725 54.2152 -110.8720 58.2882 -77.9718 0.0000 -0.0000 -0.7192 -25.7638 4.2046 -2.0267 7.1250 -0.0000 -0.0000 0.6615 -25.3129 0.3152
0.00 0.00 0.00 -0.4605 -11.4158 28.3747 0.0000 0.0000 0.0000 -20.0608 -12.4487 -51.8093 14.7819 19.3343 74.5789 1.2288 -20.8258 -23.0599 0.0101 0.6483 1.7815 0.0000 0.0000 0.0000 17.3662 -0.4576 -21.5398 -11.6747 -18.2497 64.9538 -0.1610 2.0074 -7.1469 -1.4422 7.5922 -21.4820 1.8103 1.0034 13.0751 1.2073 1.7398 -1.7341 -0.0902 0.7777 -9.2074 -0.0379 1.2814 -21.2707 -4.6769 1.9738 -0.1480 -1.2840 0.7016 3.3162 0.0000 -0.0000 0.0000 -85.6312 15.8172 50.0932 107.7962 -58.7688 -75.3483 -0.0000 0.0000 -12.9479 26.9082 -17.1073 -8.4910 -7.1250 0.0000 -0.0000 -0.6512 10.9387 0.5158 0.0000 -0.0000 0.0000 88.3618 -13.6709 45.9594 -94.1992 59.9333 -63.6358 0.0000 -0.0000 -2.0383 -27.8117 3.5596 -1.8758 7.1250 -0.0000 -0.0000 -0.9026 -25.9566 -0.4165
0.00 0.00 0.00 2.2160 -8.1321 28.4000 0.0000 0.0000 0.0000 -23.2817 -13.7208 -42.6634 12.7906 18.7053 68.4740 1.2332 -22.2980 -23.7122 0.0033 0.3732 1.0254 0.0000 0.0000 0.0000 13.1838 1.9553 -37.6553 -17.7979 -19.8833 83.5496 -0.5122 -2.7594 -14.8069 -2.6547 10.1138 -29.3462 0.9050 -0.6197 13.6724 0.9223 -0.5865 -1.6332 0.6057 -0.3010 -9.4573 -0.3918 1.3273 -21.3953 -3.6072 2.0285 -0.8618 -0.8909 0.7976 3.0913 0.0000 0.0000 0.0000 -87.9090 4.1642 50.4468 123.1680 -55.4049 -88.2812 -0.0000 0.0000 -13.3519 27.8662 -17.0702 -8.8220 -7.1250 0.0000 -0.0000 -0.0176 10.8251 0.0140 0.0000 0.0000 0.0000 89.0152 -23.8488 34.1030 -78.7792 59.5189 -50.2982 0.0000 -0.0000 -2.5890 -31.2106 5.1151 -3.0920 7.1250 -0.0000 -0.0000 -3.3683 -24.0062 -1.7094
0.00 0.00 0.00 4.1538 -5.5586 28.4037 0.0000 0.0000 0.0000 -25.9392 -12.9713 -31.6928 9.8774 17.3403 59.0778 0.7987 -23.9549 -21.9763 0.0052 0.4661 1.2808 0.0000 0.0000 0.0000 8.1512 4.4293 -54.0930 -20.6344 -19.9903 91.8552 -0.7009 -4.7591 -18.2517 -2.6668 10.1351 -29.4154 -0.0042 -1.9074 13.6353 1.3658 -2.4134 -1.6464 1.9877 -1.1162 -9.3845 -0.2547 1.6787 -21.7496 -4.2674 2.4920 -1.0051 -1.0779 0.9879 3.1187 -0.0000 0.0000 0.0000 -90.7098 -6.1348 50.4172 140.6129 -47.7025 -102.0155 -0.0000 0.0000 -13.9376 29.0744 -17.5360 -9.5103 -7.1250 0.0000 -0.0000 0.7209 10.1036 -0.5833 -0.0000 0.0000 0.0000 87.8422 -37.8437 26.2284 -86.8679 59.9629 -57.2879 0.0000 -0.0000 -7.3339 -31.2852 6.9575 -4.2098 7.1250 -0.0000 -0.0000 -3.2834 -21.8581 -1.8278
0.00 0.00 0.00 4.5751 -5.2973 28.2781 0.0000 0.0000 0.0000 -27.5388 -9.8003 -17.5295 5.8451 14.2765 44.3569 -0.6830 -22.3832 -10.1339 0.0801 -1.8253 -5.0230 0.0000 0.0000 0.0000 3.0456 8.7374 -67.4104 -18.1748 -19.9199 84.6566 -0.8979 -3.3963 -19.4362 -3.0921 10.8427 -31.7513 -0.2827 -3.1770 12.1799 2.1061 -4.0985 -1.7511 3.1939 -1.9115 -8.5333 0.4165 3.0955 -21.9657 -5.5518 4.3121 -0.1861 -1.4152 1.7973 3.4925 -0.0000 0.0000 0.0000 -88.2641 -10.9941 50.4275 155.0561 -36.1466 -111.7432 -0.0000 0.0000 -16.5702 29.5415 -18.1377 -10.0054 -7.1250 0.0000 -0.0000 0.9520 9.3493 -0.7848 -0.0000 0.0000 0.0000 84.3827 -51.3837 23.5104 -99.0184 59.6904 -67.8020 0.0000 -0.0000 -7.4268 -29.6795 8.9402 -5.0613 7.1250 -0.0000 -0.0000 -1.9719 -19.7195 -1.1916
0.00 0.00 0.00 4.0376 -6.6396 27.3637 0.0000 0.0000 0.0000 -28.1759 -9.2203 -11.0410 4.4688 12.7594 38.4743 -0.9459 -17.1209 3.5728 0.1820 -2.7480 -7.5780 0.0000 0.0000 0.0000 1.9234 11.2615 -69.0918 -15.3166 -19.4658 76.1884 -0.9070 -2.2855 -18.9530 -3.6663 11.7026 -34.6878 -0.0733 -3.0896 12.0981 2.2156 -3.9435 -1.4972 3.1450 -1.8508 -8.2258 0.4222 3.5026 -22.2081 -5.9521 4.9110 0.4071 -1.4777 2.0511 3.7438 -0.0000 0.0000 0.0000 -85.4190 -10.0341 52.4267 157.7270 -33.2842 -113.2649 -0.0000 0.0000 -15.4861 27.6370 -19.0747 -9.7102 -7.1250 0.0000 -0.0000 -0.3891 8.6584 0.3261 -0.0000 0.0000 0.0000 83.7890 -54.0591 21.8837 -100.7428 59.5594 -69.2897 0.0000 -0.0000 -6.1765 -28.8452 9.0569 -4.9552 7.1250 -0.0000 -0.0000 -1.3687 -19.6674 -0.8285
0.00 0.00 0.00 3.9624 -8.5800 25.4781 0.0000 0.0000 0.0000 -30.1586 -11.1759 -5.3497 4.1049 12.2987 36.7969 0.7677 -8.2954 21.5687 0.0670 -1.6698 -4.5938 0.0000 0.0000 0.0000 1.8227 13.0183 -67.6684 -12.0663 -18.4185 66.1988 -0.8020 -0.6169 -17.1560 -4.4657 12.7556 -38.4603 -0.6478 -2.5717 12.7132 2.0885 -3.3490 -0.9957 3.2371 -1.5448 -8.0387 0.5132 3.7475 -22.3736 -6.5025 5.3059 1.2255 -1.6172 2.1884 4.0599 0.0000 -0.0000 0.0000 -82.3582 -5.1487 56.2938 156.4335 -34.7025 -112.5417 -0.0000 0.0000 -10.3855 26.2115 -18.9907 -9.1017 -7.1250 0.0000 -0.0000 -1.2991 8.9978 1.0803 0.0000 -0.0000 0.0000 83.0617 -51.9540 20.8214 -98.3461 59.7351 -67.2215 0.0000 -0.0000 -6.0124 -27.4755 7.6591 -3.9647 7.1250 -0.0000 -0.0000 -0.4730 -21.3608 -0.2682
0.00 0.00 0.00 4.0941 -8.8550 22.8830 0.0000 0.0000 0.0000 -30.9834 -11.8129 -8.0522 7.3884 15.6504 50.3285 0.8327 -6.3438 20.6735 0.0166 0.8322 2.2872 0.0000 0.0000 0.0000 4.6135 11.9524 -61.9833 -10.5582 -17.7120 61.3383 -0.6173 0.9216 -14.5558 -4.3015 12.5511 -37.7106 -1.2604 -1.9733 13.8317 2.0755 -2.6531 -0.2460 3.4661 -1.1894 -7.8763 0.5226 3.4316 -22.1885 -7.0244 5.0015 2.2796 -1.8075 1.9810 4.3747 -0.0000 0.0000 0.0000 -80.3098 3.8047 58.8682 147.2178 -43.1619 -106.7272 -0.0000 0.0000 -11.5841 25.8699 -17.1519 -8.1385 -7.1250 0.0000 -0.0000 -1.3391 11.0514 1.0579 -0.0000 0.0000 0.0000 82.0944 -42.2163 21.6801 -90.5814 59.9987 -60.5035 0.0000 -0.0000 -5.7092 -27.4122 4.8702 -2.5211 7.1250 -0.0000 -0.0000 -0.5553 -24.4971 -0.2751
0.00 0.00 0.00 1.6436 -6.6299 20.6800 0.0000 0.0000 0.0000 -26.3135 -11.2097 -15.8030 12.2954 18.5127 66.9220 0.2484 -6.8829 14.3626 0.0152 -0.7952 -2.1853 0.0000 0.0000 0.0000 11.0995 9.4248 -52.6240 -10.0529 -17.4395 59.6651 -0.7166 -0.0482 -16.0169 -3.5202 11.4930 -33.9611 1.0056 -1.6802 15.3192 3.0279 -1.7960 0.5190 3.0679 -0.8446 -7.9844 -0.1064 2.5571 -21.7659 -7.3118 4.0671 2.8189 -1.8940 1.4878 4.4456 0.0000 -0.0000 0.0000 -80.5119 10.2211 58.2096 131.7812 -52.2514 -95.2414 -0.0000 0.0000 -15.8328 25.7253 -16.7575 -7.9087 -7.1250 0.0000 -0.0000 -1.3982 11.5025 1.0917 0.0000 -0.0000 0.0000 82.0869 -31.9358 22.9301 -85.7220 59.9307 -56.2960 0.0000 -0.0000 -6.4446 -27.7250 3.3999 -1.7853 7.1250 -0.0000 -0.0000 -0.8421 -26.1399 -0.3850
0.00 0.00 0.00 -1.3245 -4.5774 19.1443 0.0000 0.0000 0.0000 -20.4777 -10.6734 -24.1423 16.2034 19.6508 78.8370 -0.1520 -8.6732 8.7787 0.0385 -1.2657 -3.4801 0.0000 0.0000 0.0000 16.8620 7.4377 -44.0797 -9.3433 -17.0236 57.2700 -1.1212 -1.1040 -20.4365 -3.6059 11.6167 -34.3890 3.5204 -1.3429 16.7740 4.0794 -0.7476 0.8597 2.5838 -0.4119 -8.4972 -0.6034 1.7064 -21.2700 -7.4791 3.1102 3.3397 -1.9642 0.9942 4.4986 0.0000 0.0000 0.0000 -81.1831 14.3102 56.0618 114.0767 -57.6921 -80.6895 -0.0000 0.0000 -15.7826 26.1292 -16.7054 -8.0259 -7.1250 0.0000 -0.0000 -1.1263 11.4988 0.8793 0.0000 0.0000 0.0000 82.4042 -24.2075 24.2578 -85.6690 59.9290 -56.2501 0.0000 -0.0000 -6.1680 -28.1972 2.8646 -1.5348 7.1250 -0.0000 -0.0000 -1.2186 -26.7297 -0.5404
0.00 0.00 0.00 -6.2472 -2.3721 18.4618 0.0000 0.0000 0.0000 -9.9353 -10.0148 -46.5765 20.9718 19.9773 92.8423 -0.1856 -10.2192 -3.5386 0.1035 -2.0747 -5.7123 0.0000 0.0000 0.0000 25.6047 4.5505 -29.1047 -7.1978 -15.4963 49.6187 -2.0296 -3.7260 -28.4524 -4.2592 12.4976 -37.5157 7.0578 -0.1035 17.6750 5.3297 1.7953 0.5566 1.3518 0.6702 -9.3230 -1.0716 0.2545 -21.1146 -7.0020 1.4145 5.6825 -1.9164 0.1238 5.1438 0.0000 0.0000 0.0000 -79.6215 25.4862 51.3793 93.5947 -59.9511 -63.1126 -0.0000 0.0000 -8.6897 27.2737 -17.7932 -8.9531 -7.1250 0.0000 -0.0000 -0.4826 10.1269 0.3902 0.0000 0.0000 0.0000 83.3999 -11.7385 29.1090 -100.6208 59.5695 -69.1846 0.0000 -0.0000 -5.8577 -29.2825 3.0092 -1.6862 7.1250 -0.0000 -0.0000 -2.0402 -26.5296 -0.9146
0.00 0.00 0.00 -7.1571 -2.1705 19.3159 0.0000 0.0000 0.0000 -6.8360 -11.2710 -60.0993 19.8305 19.9993 89.5043 -0.0200 -11.3758 -7.6822 0.1794 -2.7280 -7.5223 0.0000 0.0000 0.0000 27.7230 2.9893 -19.6938 -5.3178 -13.7330 42.1782 -1.9828 -4.2865 -28.4116 -4.7167 13.0575 -39.5842 7.3805 1.0815 16.3282 4.7971 3.2680 0.0490 0.2510 1.3475 -9.0311 -1.5265 -0.8998 -21.2448 -5.3202 -0.1026 7.3379 -1.4769 -0.5390 5.6309 0.0000 0.0000 0.0000 -74.7950 35.0456 52.8988 104.7939 -59.1567 -72.7756 -0.0000 0.0000 -12.4787 25.8024 -18.3212 -8.6414 -7.1250 0.0000 -0.0000 -1.4960 9.7918 1.2202 0.0000 0.0000 0.0000 83.7123 -7.4072 34.5755 -116.5697 57.1568 -82.7904 0.0000 -0.0000 -6.6678 -29.6170 4.5821 -2.6002 7.1250 -0.0000 -0.0000 -2.2159 -24.7128 -1.0873
0.00 0.00 0.00 -7.1025 -0.5614 19.2751 0.0000 0.0000 0.0000 -5.0459 -15.2294 -67.0899 13.9764 19.1069 72.1325 -0.2962 -14.8805 -6.7138 0.2893 -3.4590 -9.5594 0.0000 0.0000 0.0000 28.2797 0.8197 -6.8345 -3.1221 -10.8901 31.9102 -0.8144 -2.7781 -18.2707 -5.3483 13.7656 -42.3064 7.5464 2.1051 14.4094 3.9125 4.3833 -0.1769 -0.9695 1.8904 -8.0507 -2.5935 -2.7273 -20.9092 -3.0357 -2.5059 9.0128 -0.8446 -1.5766 6.0975 -0.0000 0.0000 0.0000 -70.3857 44.2014 55.4282 117.6722 -56.8990 -83.7153 -0.0000 0.0000 -17.1071 22.1535 -17.7457 -7.0739 -7.1250 0.0000 -0.0000 -3.8348 10.9517 3.0435 -0.0000 0.0000 0.0000 81.3690 -6.5693 41.9822 -130.5308 52.7791 -94.2492 0.0000 -0.0000 -4.1435 -28.1768 9.3309 -4.9638 7.1250 -0.0000 -0.0000 -0.8736 -19.4217 -0.5335
